<svg width="89" height="24" viewBox="0 0 89 24" fill="none" xmlns="http://www.w3.org/2000/svg">
  <path d="M31.672 20H29.796V15.884C29.796 15.296 29.6933 14.8667 29.488 14.596C29.2827 14.3253 28.998 14.19 28.634 14.19C28.382 14.19 28.1253 14.2553 27.864 14.386C27.612 14.5167 27.3833 14.6987 27.178 14.932C26.9727 15.156 26.8233 15.4173 26.73 15.716V20H24.854V12.664H26.548V14.022C26.7347 13.7047 26.9727 13.4387 27.262 13.224C27.5513 13 27.8827 12.832 28.256 12.72C28.6387 12.5987 29.04 12.538 29.46 12.538C29.9173 12.538 30.2907 12.622 30.58 12.79C30.8787 12.9487 31.1027 13.168 31.252 13.448C31.4107 13.7187 31.518 14.0267 31.574 14.372C31.6393 14.7173 31.672 15.0673 31.672 15.422V20ZM43.8905 12.664C43.8252 12.5987 43.7038 12.51 43.5265 12.398C43.3585 12.286 43.1485 12.1787 42.8965 12.076C42.6538 11.9733 42.3878 11.8847 42.0985 11.81C41.8092 11.726 41.5152 11.684 41.2165 11.684C40.6938 11.684 40.2972 11.782 40.0265 11.978C39.7652 12.174 39.6345 12.4493 39.6345 12.804C39.6345 13.0747 39.7185 13.2893 39.8865 13.448C40.0545 13.6067 40.3065 13.742 40.6425 13.854C40.9785 13.966 41.3985 14.0873 41.9025 14.218C42.5558 14.3767 43.1205 14.5727 43.5965 14.806C44.0818 15.03 44.4505 15.3287 44.7025 15.702C44.9638 16.066 45.0945 16.5513 45.0945 17.158C45.0945 17.69 44.9965 18.1473 44.8005 18.53C44.6045 18.9033 44.3338 19.2067 43.9885 19.44C43.6432 19.6733 43.2512 19.846 42.8125 19.958C42.3738 20.0607 41.9072 20.112 41.4125 20.112C40.9178 20.112 40.4232 20.0607 39.9285 19.958C39.4338 19.8553 38.9578 19.7107 38.5005 19.524C38.0432 19.328 37.6232 19.0947 37.2405 18.824L38.0945 17.158C38.1785 17.242 38.3278 17.354 38.5425 17.494C38.7572 17.6247 39.0185 17.76 39.3265 17.9C39.6345 18.0307 39.9705 18.1427 40.3345 18.236C40.6985 18.3293 41.0672 18.376 41.4405 18.376C41.9632 18.376 42.3598 18.2873 42.6305 18.11C42.9012 17.9327 43.0365 17.6807 43.0365 17.354C43.0365 17.0553 42.9292 16.822 42.7145 16.654C42.4998 16.486 42.2012 16.3413 41.8185 16.22C41.4358 16.0893 40.9832 15.9493 40.4605 15.8C39.8352 15.6227 39.3125 15.4267 38.8925 15.212C38.4725 14.988 38.1598 14.708 37.9545 14.372C37.7492 14.036 37.6465 13.616 37.6465 13.112C37.6465 12.4307 37.8052 11.8613 38.1225 11.404C38.4492 10.9373 38.8878 10.5873 39.4385 10.354C39.9892 10.1113 40.6005 9.99 41.2725 9.99C41.7392 9.99 42.1778 10.0413 42.5885 10.144C43.0085 10.2467 43.4005 10.382 43.7645 10.55C44.1285 10.718 44.4552 10.9 44.7445 11.096L43.8905 12.664ZM51.1644 19.622C51.0057 19.6873 50.8144 19.762 50.5904 19.846C50.3664 19.93 50.1237 19.9953 49.8624 20.042C49.6104 20.098 49.3537 20.126 49.0924 20.126C48.747 20.126 48.4297 20.0653 48.1404 19.944C47.851 19.8227 47.6177 19.6313 47.4404 19.37C47.2724 19.0993 47.1884 18.7493 47.1884 18.32V14.106H46.2224V12.664H47.1884V10.284H49.0644V12.664H50.6044V14.106H49.0644V17.69C49.0737 17.942 49.1437 18.124 49.2744 18.236C49.405 18.348 49.5684 18.404 49.7644 18.404C49.9604 18.404 50.1517 18.3713 50.3384 18.306C50.525 18.2407 50.6744 18.1847 50.7864 18.138L51.1644 19.622ZM52.6314 17.256V12.664H54.5074V16.85C54.5074 17.41 54.6101 17.8347 54.8154 18.124C55.0208 18.404 55.3241 18.544 55.7254 18.544C55.9681 18.544 56.2061 18.4973 56.4394 18.404C56.6821 18.3013 56.9014 18.152 57.0974 17.956C57.3028 17.76 57.4754 17.5127 57.6154 17.214V12.664H59.4914V17.9C59.4914 18.096 59.5241 18.236 59.5894 18.32C59.6641 18.404 59.7808 18.4553 59.9394 18.474V20C59.7528 20.028 59.5941 20.0467 59.4634 20.056C59.3421 20.0747 59.2301 20.084 59.1274 20.084C58.7914 20.084 58.5161 20.0093 58.3014 19.86C58.0961 19.7013 57.9748 19.4867 57.9374 19.216L57.8954 18.628C57.5688 19.1227 57.1488 19.5007 56.6354 19.762C56.1221 20.014 55.5574 20.14 54.9414 20.14C54.1854 20.14 53.6114 19.8973 53.2194 19.412C52.8274 18.9173 52.6314 18.1987 52.6314 17.256ZM66.0877 20.14C65.5277 20.14 65.0284 20.014 64.5897 19.762C64.1511 19.51 63.8057 19.1647 63.5537 18.726V20H61.9157V9.78H63.7917V13.952C64.0531 13.5133 64.3937 13.168 64.8137 12.916C65.2431 12.664 65.7424 12.538 66.3117 12.538C66.7877 12.538 67.2217 12.6407 67.6137 12.846C68.0057 13.042 68.3417 13.3173 68.6217 13.672C68.9111 14.0267 69.1304 14.4327 69.2797 14.89C69.4384 15.3473 69.5177 15.8373 69.5177 16.36C69.5177 16.8827 69.4291 17.3727 69.2517 17.83C69.0837 18.2873 68.8457 18.6933 68.5377 19.048C68.2297 19.3933 67.8657 19.664 67.4457 19.86C67.0351 20.0467 66.5824 20.14 66.0877 20.14ZM65.5697 18.544C65.8684 18.544 66.1391 18.488 66.3817 18.376C66.6337 18.2547 66.8484 18.096 67.0257 17.9C67.2124 17.704 67.3524 17.4753 67.4457 17.214C67.5484 16.9433 67.5997 16.6633 67.5997 16.374C67.5997 15.9727 67.5157 15.604 67.3477 15.268C67.1891 14.9227 66.9651 14.6473 66.6757 14.442C66.3957 14.2367 66.0644 14.134 65.6817 14.134C65.4111 14.134 65.1497 14.1993 64.8977 14.33C64.6551 14.4513 64.4357 14.6193 64.2397 14.834C64.0531 15.0487 63.9037 15.2913 63.7917 15.562V17.312C63.8477 17.4987 63.9364 17.6667 64.0577 17.816C64.1884 17.9653 64.3377 18.096 64.5057 18.208C64.6737 18.3107 64.8464 18.3947 65.0237 18.46C65.2104 18.516 65.3924 18.544 65.5697 18.544ZM75.5208 20.14C74.9608 20.14 74.4614 20.014 74.0228 19.762C73.5841 19.51 73.2388 19.1647 72.9868 18.726V20H71.3488V9.78H73.2248V13.952C73.4861 13.5133 73.8268 13.168 74.2468 12.916C74.6761 12.664 75.1754 12.538 75.7448 12.538C76.2208 12.538 76.6548 12.6407 77.0468 12.846C77.4388 13.042 77.7748 13.3173 78.0548 13.672C78.3441 14.0267 78.5634 14.4327 78.7128 14.89C78.8714 15.3473 78.9508 15.8373 78.9508 16.36C78.9508 16.8827 78.8621 17.3727 78.6848 17.83C78.5168 18.2873 78.2788 18.6933 77.9708 19.048C77.6628 19.3933 77.2988 19.664 76.8788 19.86C76.4681 20.0467 76.0154 20.14 75.5208 20.14ZM75.0028 18.544C75.3014 18.544 75.5721 18.488 75.8148 18.376C76.0668 18.2547 76.2814 18.096 76.4588 17.9C76.6454 17.704 76.7854 17.4753 76.8788 17.214C76.9814 16.9433 77.0328 16.6633 77.0328 16.374C77.0328 15.9727 76.9488 15.604 76.7808 15.268C76.6221 14.9227 76.3981 14.6473 76.1088 14.442C75.8288 14.2367 75.4974 14.134 75.1148 14.134C74.8441 14.134 74.5828 14.1993 74.3308 14.33C74.0881 14.4513 73.8688 14.6193 73.6728 14.834C73.4861 15.0487 73.3368 15.2913 73.2248 15.562V17.312C73.2808 17.4987 73.3694 17.6667 73.4908 17.816C73.6214 17.9653 73.7708 18.096 73.9388 18.208C74.1068 18.3107 74.2794 18.3947 74.4568 18.46C74.6434 18.516 74.8254 18.544 75.0028 18.544ZM83.4838 20.14C82.8585 20.14 82.2611 20.0373 81.6918 19.832C81.1225 19.6267 80.6325 19.3233 80.2218 18.922L80.8938 17.704C81.3325 18.0587 81.7618 18.32 82.1818 18.488C82.6111 18.656 83.0218 18.74 83.4138 18.74C83.7778 18.74 84.0671 18.6747 84.2818 18.544C84.5058 18.4133 84.6178 18.2173 84.6178 17.956C84.6178 17.7787 84.5571 17.6433 84.4358 17.55C84.3145 17.4473 84.1371 17.3587 83.9038 17.284C83.6798 17.2093 83.4045 17.1253 83.0778 17.032C82.5365 16.8547 82.0838 16.682 81.7198 16.514C81.3558 16.346 81.0805 16.136 80.8938 15.884C80.7165 15.6227 80.6278 15.2913 80.6278 14.89C80.6278 14.4047 80.7491 13.9893 80.9918 13.644C81.2438 13.2893 81.5891 13.014 82.0278 12.818C82.4758 12.622 82.9985 12.524 83.5958 12.524C84.1185 12.524 84.6131 12.608 85.0798 12.776C85.5465 12.9347 85.9711 13.196 86.3538 13.56L85.5978 14.75C85.2245 14.4607 84.8698 14.2507 84.5338 14.12C84.1978 13.98 83.8571 13.91 83.5118 13.91C83.3158 13.91 83.1291 13.9333 82.9518 13.98C82.7838 14.0267 82.6438 14.106 82.5318 14.218C82.4291 14.3207 82.3778 14.47 82.3778 14.666C82.3778 14.8433 82.4245 14.9833 82.5178 15.086C82.6205 15.1793 82.7698 15.2633 82.9658 15.338C83.1711 15.4127 83.4185 15.4967 83.7078 15.59C84.2958 15.758 84.7905 15.9307 85.1918 16.108C85.6025 16.2853 85.9105 16.5047 86.1158 16.766C86.3211 17.018 86.4238 17.368 86.4238 17.816C86.4238 18.544 86.1578 19.1133 85.6258 19.524C85.0938 19.9347 84.3798 20.14 83.4838 20.14Z" fill="black" />
  <path fill-rule="evenodd" clip-rule="evenodd" d="M24 0C10.7452 0 0 10.7452 0 24C6.07151 24 11.6164 21.7455 15.8433 18.0279C15.871 18.3888 15.9759 18.7195 16.1578 19.02C16.3818 19.3653 16.6851 19.6407 17.0678 19.846C17.4598 20.042 17.8984 20.14 18.3838 20.14C18.8784 20.14 19.3638 20.028 19.8398 19.804C20.3158 19.58 20.7124 19.2627 21.0298 18.852L21.0718 19.23C21.1184 19.4727 21.2351 19.678 21.4218 19.846C21.6178 20.014 21.9024 20.098 22.2758 20.098C22.3691 20.098 22.4811 20.0887 22.6118 20.07C22.7518 20.0513 22.9058 20.028 23.0738 20V18.474C22.9151 18.4553 22.7984 18.404 22.7238 18.32C22.6584 18.236 22.6258 18.096 22.6258 17.9V15.562C22.6258 14.5913 22.3318 13.8447 21.7438 13.322C21.3851 12.998 20.9367 12.7744 20.3986 12.6513C22.6815 8.9781 24 4.64302 24 0ZM19.5477 13.9276C19.8444 13.5119 20.1283 13.0862 20.3986 12.6513C20.0687 12.5758 19.7051 12.538 19.3078 12.538C18.7478 12.538 18.2111 12.6173 17.6978 12.776C17.1938 12.9347 16.6991 13.1727 16.2138 13.49L16.8158 14.722C17.2171 14.4513 17.5998 14.246 17.9638 14.106C18.3278 13.966 18.7104 13.896 19.1118 13.896C19.2684 13.896 19.4137 13.9065 19.5477 13.9276ZM18.3326 15.49C18.7584 14.9866 19.1638 14.4654 19.5477 13.9276C19.8767 13.9795 20.1374 14.0949 20.3298 14.274C20.6098 14.526 20.7498 14.8853 20.7498 15.352V15.744C20.5164 15.6413 20.2411 15.5667 19.9238 15.52C19.6064 15.4733 19.2938 15.45 18.9858 15.45C18.7585 15.45 18.5408 15.4633 18.3326 15.49ZM18.3326 15.49C17.5663 16.396 16.7341 17.2444 15.8433 18.0279C15.8383 17.9629 15.8358 17.8969 15.8358 17.83C15.8358 17.354 15.9664 16.9387 16.2278 16.584C16.4984 16.22 16.8718 15.94 17.3478 15.744C17.6482 15.6203 17.9764 15.5357 18.3326 15.49ZM6.036 10.06V20H9.648C10.6467 20 11.51 19.7947 12.238 19.384C12.9753 18.9733 13.5447 18.3947 13.946 17.648C14.3473 16.9013 14.548 16.024 14.548 15.016C14.548 14.1013 14.366 13.2707 14.002 12.524C13.638 11.768 13.092 11.1707 12.364 10.732C11.636 10.284 10.7307 10.06 9.648 10.06H6.036ZM12.602 15.016C12.602 14.372 12.4853 13.8073 12.252 13.322C12.0187 12.8273 11.6827 12.4447 11.244 12.174C10.8053 11.894 10.2733 11.754 9.648 11.754H7.968V18.306H9.648C10.2827 18.306 10.8193 18.166 11.258 17.886C11.6967 17.5967 12.028 17.2047 12.252 16.71C12.4853 16.206 12.602 15.6413 12.602 15.016ZM20.3998 18.208C20.5024 18.096 20.5864 17.984 20.6518 17.872C20.7171 17.76 20.7498 17.6573 20.7498 17.564V16.822C20.5258 16.7287 20.2831 16.6587 20.0218 16.612C19.7604 16.556 19.5131 16.528 19.2798 16.528C18.7944 16.528 18.3931 16.6353 18.0758 16.85C17.7678 17.0553 17.6138 17.3307 17.6138 17.676C17.6138 17.8627 17.6651 18.04 17.7678 18.208C17.8704 18.376 18.0198 18.5113 18.2158 18.614C18.4118 18.7167 18.6451 18.768 18.9158 18.768C19.1958 18.768 19.4711 18.7167 19.7418 18.614C20.0124 18.502 20.2318 18.3667 20.3998 18.208Z" fill="black" />
</svg>