<svg width="248" height="229" viewBox="0 0 248 229" fill="none" xmlns="http://www.w3.org/2000/svg">
<rect width="200" height="100" rx="10" fill="#4DAFF5"/>
<rect y="129" width="200" height="100" rx="10" fill="#4DAFF5"/>
<path d="M207.354 99.6464C207.158 99.4512 206.842 99.4512 206.646 99.6464L203.464 102.828C203.269 103.024 203.269 103.34 203.464 103.536C203.66 103.731 203.976 103.731 204.172 103.536L207 100.707L209.828 103.536C210.024 103.731 210.34 103.731 210.536 103.536C210.731 103.34 210.731 103.024 210.536 102.828L207.354 99.6464ZM206.646 129.354C206.842 129.549 207.158 129.549 207.354 129.354L210.536 126.172C210.731 125.976 210.731 125.66 210.536 125.464C210.34 125.269 210.024 125.269 209.828 125.464L207 128.293L204.172 125.464C203.976 125.269 203.66 125.269 203.464 125.464C203.269 125.66 203.269 125.976 203.464 126.172L206.646 129.354ZM206.5 100V129H207.5V100H206.5Z" fill="white"/>
<line x1="189" y1="129.5" x2="226" y2="129.5" stroke="#4DAFF5"/>
<line x1="189" y1="99.5" x2="226" y2="99.5" stroke="#4DAFF5"/>
<path d="M218.393 117.781V119H212.615V117.957L215.387 114.963C215.676 114.635 215.904 114.35 216.072 114.107C216.24 113.865 216.359 113.646 216.43 113.451C216.504 113.252 216.541 113.062 216.541 112.883C216.541 112.621 216.494 112.393 216.4 112.197C216.307 111.998 216.17 111.844 215.99 111.734C215.814 111.625 215.598 111.57 215.34 111.57C215.055 111.57 214.811 111.637 214.607 111.77C214.408 111.898 214.256 112.078 214.15 112.309C214.049 112.539 213.998 112.803 213.998 113.1H212.445C212.445 112.596 212.562 112.137 212.797 111.723C213.031 111.305 213.367 110.971 213.805 110.721C214.242 110.471 214.762 110.346 215.363 110.346C215.949 110.346 216.445 110.443 216.852 110.639C217.258 110.83 217.566 111.104 217.777 111.459C217.988 111.814 218.094 112.238 218.094 112.73C218.094 113.004 218.049 113.273 217.959 113.539C217.869 113.805 217.742 114.068 217.578 114.33C217.418 114.588 217.227 114.85 217.004 115.115C216.781 115.381 216.533 115.652 216.26 115.93L214.596 117.781H218.393ZM225.119 114.002V115.438C225.119 116.094 225.053 116.654 224.92 117.119C224.787 117.584 224.596 117.965 224.346 118.262C224.096 118.555 223.797 118.771 223.449 118.912C223.102 119.049 222.715 119.117 222.289 119.117C221.949 119.117 221.633 119.074 221.34 118.988C221.047 118.898 220.783 118.762 220.549 118.578C220.318 118.391 220.119 118.152 219.951 117.863C219.787 117.574 219.66 117.229 219.57 116.826C219.484 116.424 219.441 115.961 219.441 115.438V114.002C219.441 113.346 219.508 112.787 219.641 112.326C219.777 111.865 219.971 111.488 220.221 111.195C220.471 110.902 220.77 110.689 221.117 110.557C221.465 110.42 221.852 110.352 222.277 110.352C222.621 110.352 222.938 110.395 223.227 110.48C223.52 110.566 223.781 110.701 224.012 110.885C224.246 111.064 224.445 111.299 224.609 111.588C224.773 111.873 224.898 112.217 224.984 112.619C225.074 113.018 225.119 113.479 225.119 114.002ZM223.572 115.648V113.785C223.572 113.457 223.553 113.172 223.514 112.93C223.479 112.684 223.426 112.475 223.355 112.303C223.285 112.131 223.197 111.992 223.092 111.887C222.986 111.777 222.865 111.697 222.729 111.646C222.592 111.596 222.441 111.57 222.277 111.57C222.074 111.57 221.893 111.611 221.732 111.693C221.572 111.771 221.438 111.896 221.328 112.068C221.219 112.24 221.135 112.469 221.076 112.754C221.021 113.035 220.994 113.379 220.994 113.785V115.648C220.994 115.977 221.012 116.264 221.047 116.51C221.086 116.756 221.141 116.967 221.211 117.143C221.285 117.318 221.373 117.463 221.475 117.576C221.58 117.686 221.701 117.768 221.838 117.822C221.975 117.873 222.125 117.898 222.289 117.898C222.496 117.898 222.678 117.857 222.834 117.775C222.994 117.693 223.129 117.564 223.238 117.389C223.348 117.209 223.43 116.977 223.484 116.691C223.543 116.402 223.572 116.055 223.572 115.648ZM227.955 113.879V121.438H226.402V112.66H227.838L227.955 113.879ZM232.027 115.766V115.889C232.027 116.35 231.973 116.777 231.863 117.172C231.758 117.562 231.602 117.904 231.395 118.197C231.188 118.486 230.93 118.713 230.621 118.877C230.316 119.037 229.965 119.117 229.566 119.117C229.176 119.117 228.836 119.043 228.547 118.895C228.258 118.742 228.014 118.527 227.814 118.25C227.615 117.973 227.455 117.65 227.334 117.283C227.217 116.912 227.129 116.508 227.07 116.07V115.678C227.129 115.213 227.217 114.791 227.334 114.412C227.455 114.029 227.615 113.699 227.814 113.422C228.014 113.141 228.256 112.924 228.541 112.771C228.83 112.619 229.168 112.543 229.555 112.543C229.957 112.543 230.311 112.619 230.615 112.771C230.924 112.924 231.184 113.143 231.395 113.428C231.605 113.713 231.764 114.053 231.869 114.447C231.975 114.842 232.027 115.281 232.027 115.766ZM230.475 115.889V115.766C230.475 115.484 230.449 115.225 230.398 114.986C230.348 114.744 230.27 114.533 230.164 114.354C230.059 114.17 229.922 114.027 229.754 113.926C229.586 113.824 229.383 113.773 229.145 113.773C228.906 113.773 228.701 113.812 228.529 113.891C228.357 113.969 228.217 114.08 228.107 114.225C227.998 114.369 227.912 114.541 227.85 114.74C227.791 114.936 227.752 115.152 227.732 115.391V116.363C227.768 116.652 227.836 116.912 227.938 117.143C228.039 117.373 228.188 117.557 228.383 117.693C228.582 117.83 228.84 117.898 229.156 117.898C229.395 117.898 229.598 117.846 229.766 117.74C229.934 117.635 230.07 117.49 230.176 117.307C230.281 117.119 230.357 116.904 230.404 116.662C230.451 116.42 230.475 116.162 230.475 115.889ZM234.277 112.66L235.408 114.676L236.557 112.66H238.238L236.375 115.766L238.314 119H236.633L235.42 116.885L234.201 119H232.52L234.453 115.766L232.602 112.66H234.277Z" fill="white"/>
<path d="M23.576 31.144C22.844 31.144 22.262 30.946 21.83 30.55C21.41 30.154 21.2 29.65 21.2 29.038V21.694C21.2 21.334 21.158 21.004 21.074 20.704C20.99 20.404 20.84 20.17 20.624 20.002C20.408 19.822 20.096 19.732 19.688 19.732C19.304 19.732 18.992 19.816 18.752 19.984C18.524 20.152 18.356 20.392 18.248 20.704C18.14 21.004 18.086 21.352 18.086 21.748V22.072H19.652V23.908H18.086V31H15.674V23.908H14.432V22.072H15.674V21.28C15.674 20.5 15.83 19.846 16.142 19.318C16.466 18.778 16.922 18.37 17.51 18.094C18.098 17.818 18.8 17.68 19.616 17.68C20.984 17.68 21.992 18.004 22.64 18.652C23.288 19.3 23.612 20.152 23.612 21.208V27.904C23.612 28.288 23.678 28.564 23.81 28.732C23.942 28.9 24.128 28.984 24.368 28.984C24.596 28.984 24.824 28.948 25.052 28.876C25.28 28.804 25.442 28.75 25.538 28.714L25.862 30.658C25.766 30.706 25.592 30.772 25.34 30.856C25.088 30.928 24.806 30.994 24.494 31.054C24.182 31.114 23.876 31.144 23.576 31.144ZM26.8381 27.472V21.568H29.2501V26.95C29.2501 27.67 29.3821 28.216 29.6461 28.588C29.9101 28.948 30.3001 29.128 30.8161 29.128C31.1281 29.128 31.4341 29.068 31.7341 28.948C32.0461 28.816 32.3281 28.624 32.5801 28.372C32.8441 28.12 33.0661 27.802 33.2461 27.418V21.568H35.6581V28.3C35.6581 28.552 35.7001 28.732 35.7841 28.84C35.8801 28.948 36.0301 29.014 36.2341 29.038V31C35.9941 31.036 35.7901 31.06 35.6221 31.072C35.4661 31.096 35.3221 31.108 35.1901 31.108C34.7581 31.108 34.4041 31.012 34.1281 30.82C33.8641 30.616 33.7081 30.34 33.6601 29.992L33.6061 29.236C33.1861 29.872 32.6461 30.358 31.9861 30.694C31.3261 31.018 30.6001 31.18 29.8081 31.18C28.8361 31.18 28.0981 30.868 27.5941 30.244C27.0901 29.608 26.8381 28.684 26.8381 27.472ZM43.6719 30.514C43.4679 30.598 43.2219 30.694 42.9339 30.802C42.6459 30.91 42.3339 30.994 41.9979 31.054C41.6739 31.126 41.3439 31.162 41.0079 31.162C40.5639 31.162 40.1559 31.084 39.7839 30.928C39.4119 30.772 39.1119 30.526 38.8839 30.19C38.6679 29.842 38.5599 29.392 38.5599 28.84V23.422H37.3179V21.568H38.5599V18.508H40.9719V21.568H42.9519V23.422H40.9719V28.03C40.9839 28.354 41.0739 28.588 41.2419 28.732C41.4099 28.876 41.6199 28.948 41.8719 28.948C42.1239 28.948 42.3699 28.906 42.6099 28.822C42.8499 28.738 43.0419 28.666 43.1859 28.606L43.6719 30.514ZM50.5449 30.514C50.3409 30.598 50.0949 30.694 49.8069 30.802C49.5189 30.91 49.2069 30.994 48.8709 31.054C48.5469 31.126 48.2169 31.162 47.8809 31.162C47.4369 31.162 47.0289 31.084 46.6569 30.928C46.2849 30.772 45.9849 30.526 45.7569 30.19C45.5409 29.842 45.4329 29.392 45.4329 28.84V23.422H44.1909V21.568H45.4329V18.508H47.8449V21.568H49.8249V23.422H47.8449V28.03C47.8569 28.354 47.9469 28.588 48.1149 28.732C48.2829 28.876 48.4929 28.948 48.7449 28.948C48.9969 28.948 49.2429 28.906 49.4829 28.822C49.7229 28.738 49.9149 28.666 50.0589 28.606L50.5449 30.514ZM56.0697 31.18C55.3137 31.18 54.6297 31.054 54.0177 30.802C53.4057 30.538 52.8837 30.184 52.4517 29.74C52.0197 29.284 51.6837 28.768 51.4437 28.192C51.2157 27.604 51.1017 26.986 51.1017 26.338C51.1017 25.438 51.2997 24.616 51.6957 23.872C52.1037 23.128 52.6797 22.534 53.4237 22.09C54.1797 21.634 55.0677 21.406 56.0877 21.406C57.1197 21.406 58.0017 21.634 58.7337 22.09C59.4657 22.534 60.0237 23.128 60.4077 23.872C60.8037 24.604 61.0017 25.396 61.0017 26.248C61.0017 26.392 60.9957 26.542 60.9837 26.698C60.9717 26.842 60.9597 26.962 60.9477 27.058H53.6577C53.7057 27.538 53.8437 27.958 54.0717 28.318C54.3117 28.678 54.6117 28.954 54.9717 29.146C55.3437 29.326 55.7397 29.416 56.1597 29.416C56.6397 29.416 57.0897 29.302 57.5097 29.074C57.9417 28.834 58.2357 28.522 58.3917 28.138L60.4617 28.714C60.2337 29.194 59.9037 29.62 59.4717 29.992C59.0517 30.364 58.5537 30.658 57.9777 30.874C57.4017 31.078 56.7657 31.18 56.0697 31.18ZM53.6037 25.528H58.5357C58.4877 25.048 58.3497 24.634 58.1217 24.286C57.9057 23.926 57.6177 23.65 57.2577 23.458C56.8977 23.254 56.4957 23.152 56.0517 23.152C55.6197 23.152 55.2237 23.254 54.8637 23.458C54.5157 23.65 54.2277 23.926 53.9997 24.286C53.7837 24.634 53.6517 25.048 53.6037 25.528ZM68.087 23.656C67.355 23.656 66.701 23.8 66.125 24.088C65.549 24.364 65.135 24.766 64.883 25.294V31H62.471V21.568H64.685V23.584C65.021 22.936 65.447 22.426 65.963 22.054C66.479 21.682 67.025 21.478 67.601 21.442C67.733 21.442 67.835 21.442 67.907 21.442C67.979 21.442 68.039 21.448 68.087 21.46V23.656ZM69.306 33.178V31H75.912V33.178H69.306ZM81.449 31.18C80.645 31.18 79.877 31.048 79.145 30.784C78.413 30.52 77.783 30.13 77.255 29.614L78.119 28.048C78.683 28.504 79.235 28.84 79.775 29.056C80.327 29.272 80.855 29.38 81.359 29.38C81.827 29.38 82.199 29.296 82.475 29.128C82.763 28.96 82.907 28.708 82.907 28.372C82.907 28.144 82.829 27.97 82.673 27.85C82.517 27.718 82.289 27.604 81.989 27.508C81.701 27.412 81.347 27.304 80.927 27.184C80.231 26.956 79.649 26.734 79.181 26.518C78.713 26.302 78.359 26.032 78.119 25.708C77.891 25.372 77.777 24.946 77.777 24.43C77.777 23.806 77.933 23.272 78.245 22.828C78.569 22.372 79.013 22.018 79.577 21.766C80.153 21.514 80.825 21.388 81.593 21.388C82.265 21.388 82.901 21.496 83.501 21.712C84.101 21.916 84.647 22.252 85.139 22.72L84.167 24.25C83.687 23.878 83.231 23.608 82.799 23.44C82.367 23.26 81.929 23.17 81.485 23.17C81.233 23.17 80.993 23.2 80.765 23.26C80.549 23.32 80.369 23.422 80.225 23.566C80.093 23.698 80.027 23.89 80.027 24.142C80.027 24.37 80.087 24.55 80.207 24.682C80.339 24.802 80.531 24.91 80.783 25.006C81.047 25.102 81.365 25.21 81.737 25.33C82.493 25.546 83.129 25.768 83.645 25.996C84.173 26.224 84.569 26.506 84.833 26.842C85.097 27.166 85.229 27.616 85.229 28.192C85.229 29.128 84.887 29.86 84.203 30.388C83.519 30.916 82.601 31.18 81.449 31.18ZM91.2435 31.18C90.4875 31.18 89.8035 31.054 89.1915 30.802C88.5795 30.538 88.0575 30.184 87.6255 29.74C87.1935 29.284 86.8575 28.768 86.6175 28.192C86.3895 27.604 86.2755 26.986 86.2755 26.338C86.2755 25.438 86.4735 24.616 86.8695 23.872C87.2775 23.128 87.8535 22.534 88.5975 22.09C89.3535 21.634 90.2415 21.406 91.2615 21.406C92.2935 21.406 93.1755 21.634 93.9075 22.09C94.6395 22.534 95.1975 23.128 95.5815 23.872C95.9775 24.604 96.1755 25.396 96.1755 26.248C96.1755 26.392 96.1695 26.542 96.1575 26.698C96.1455 26.842 96.1335 26.962 96.1215 27.058H88.8315C88.8795 27.538 89.0175 27.958 89.2455 28.318C89.4855 28.678 89.7855 28.954 90.1455 29.146C90.5175 29.326 90.9135 29.416 91.3335 29.416C91.8135 29.416 92.2635 29.302 92.6835 29.074C93.1155 28.834 93.4095 28.522 93.5655 28.138L95.6355 28.714C95.4075 29.194 95.0775 29.62 94.6455 29.992C94.2255 30.364 93.7275 30.658 93.1515 30.874C92.5755 31.078 91.9395 31.18 91.2435 31.18ZM88.7775 25.528H93.7095C93.6615 25.048 93.5235 24.634 93.2955 24.286C93.0795 23.926 92.7915 23.65 92.4315 23.458C92.0715 23.254 91.6695 23.152 91.2255 23.152C90.7935 23.152 90.3975 23.254 90.0375 23.458C89.6895 23.65 89.4015 23.926 89.1735 24.286C88.9575 24.634 88.8255 25.048 88.7775 25.528ZM103.261 23.656C102.529 23.656 101.875 23.8 101.299 24.088C100.723 24.364 100.309 24.766 100.057 25.294V31H97.6449V21.568H99.8589V23.584C100.195 22.936 100.621 22.426 101.137 22.054C101.653 21.682 102.199 21.478 102.775 21.442C102.907 21.442 103.009 21.442 103.081 21.442C103.153 21.442 103.213 21.448 103.261 21.46V23.656ZM104.606 31V21.568H107.018V31H104.606ZM104.606 20.254V17.86H107.018V20.254H104.606ZM113.568 31.18C112.812 31.18 112.128 31.054 111.516 30.802C110.904 30.538 110.382 30.184 109.95 29.74C109.518 29.284 109.182 28.768 108.942 28.192C108.714 27.604 108.6 26.986 108.6 26.338C108.6 25.438 108.798 24.616 109.194 23.872C109.602 23.128 110.178 22.534 110.922 22.09C111.678 21.634 112.566 21.406 113.586 21.406C114.618 21.406 115.5 21.634 116.232 22.09C116.964 22.534 117.522 23.128 117.906 23.872C118.302 24.604 118.5 25.396 118.5 26.248C118.5 26.392 118.494 26.542 118.482 26.698C118.47 26.842 118.458 26.962 118.446 27.058H111.156C111.204 27.538 111.342 27.958 111.57 28.318C111.81 28.678 112.11 28.954 112.47 29.146C112.842 29.326 113.238 29.416 113.658 29.416C114.138 29.416 114.588 29.302 115.008 29.074C115.44 28.834 115.734 28.522 115.89 28.138L117.96 28.714C117.732 29.194 117.402 29.62 116.97 29.992C116.55 30.364 116.052 30.658 115.476 30.874C114.9 31.078 114.264 31.18 113.568 31.18ZM111.102 25.528H116.034C115.986 25.048 115.848 24.634 115.62 24.286C115.404 23.926 115.116 23.65 114.756 23.458C114.396 23.254 113.994 23.152 113.55 23.152C113.118 23.152 112.722 23.254 112.362 23.458C112.014 23.65 111.726 23.926 111.498 24.286C111.282 24.634 111.15 25.048 111.102 25.528ZM123.443 31.18C122.639 31.18 121.871 31.048 121.139 30.784C120.407 30.52 119.777 30.13 119.249 29.614L120.113 28.048C120.677 28.504 121.229 28.84 121.769 29.056C122.321 29.272 122.849 29.38 123.353 29.38C123.821 29.38 124.193 29.296 124.469 29.128C124.757 28.96 124.901 28.708 124.901 28.372C124.901 28.144 124.823 27.97 124.667 27.85C124.511 27.718 124.283 27.604 123.983 27.508C123.695 27.412 123.341 27.304 122.921 27.184C122.225 26.956 121.643 26.734 121.175 26.518C120.707 26.302 120.353 26.032 120.113 25.708C119.885 25.372 119.771 24.946 119.771 24.43C119.771 23.806 119.927 23.272 120.239 22.828C120.563 22.372 121.007 22.018 121.571 21.766C122.147 21.514 122.819 21.388 123.587 21.388C124.259 21.388 124.895 21.496 125.495 21.712C126.095 21.916 126.641 22.252 127.133 22.72L126.161 24.25C125.681 23.878 125.225 23.608 124.793 23.44C124.361 23.26 123.923 23.17 123.479 23.17C123.227 23.17 122.987 23.2 122.759 23.26C122.543 23.32 122.363 23.422 122.219 23.566C122.087 23.698 122.021 23.89 122.021 24.142C122.021 24.37 122.081 24.55 122.201 24.682C122.333 24.802 122.525 24.91 122.777 25.006C123.041 25.102 123.359 25.21 123.731 25.33C124.487 25.546 125.123 25.768 125.639 25.996C126.167 26.224 126.563 26.506 126.827 26.842C127.091 27.166 127.223 27.616 127.223 28.192C127.223 29.128 126.881 29.86 126.197 30.388C125.513 30.916 124.595 31.18 123.443 31.18Z" fill="white"/>
</svg>
